<?xml version="1.0" encoding="utf-8"?>
<!-- Generated by IcoMoon.io -->
<!DOCTYPE svg PUBLIC "-//W3C//DTD SVG 1.1//EN" "http://www.w3.org/Graphics/SVG/1.1/DTD/svg11.dtd">
<svg version="1.1" xmlns="http://www.w3.org/2000/svg" xmlns:xlink="http://www.w3.org/1999/xlink" width="512" height="512" viewBox="0 0 512 512">
<g>
</g>
	<path d="M7029.965 37002.681c0 15.394-12.48 27.874-27.873 27.874-15.394 0-27.873-12.48-27.873-27.874 0-15.394 12.48-27.874 27.873-27.874 15.394 0 27.873 12.48 27.873 27.874z" fill="#000000" />
	<path d="M6832.282 37085.624l-1.218 0.215-1.177 0.563z" fill="#000000" />
	<path d="M6870.681 37069.957l-0.051-0.502c-0.113-0.942-0.072-1.863-0.041-2.775l-39.526 19.149 1.218-0.215-2.386 0.778 1.167-0.563-20.89 3.645 30.966 5.56 34.498-12.165-4.792-12.462-0.164-0.45z" fill="#000000" />
	<path d="M6844.068 37101.056l-2.233-0.399-2.099 0.707z" fill="#000000" />
	<path d="M6877.44 37088.921l-35.605 11.735 2.233 0.399-4.332 0.297 2.099-0.696-72.212-12.861-2.663 1.382-26.276 23.327 29.757-6.533-0.973-0.185 5.611-0.84-4.639 1.024 72.704 12.944 2.15-0.696 47.626-15.719c-3.123-0.717-6.073-2.038-8.663-4.065-3.175-2.519-5.448-5.817-6.82-9.513z" fill="#000000" />
	<path d="M6769.48 37105.797l0.973 0.185 4.639-1.024z" fill="#000000" />
	<path d="M6878.535 37067.366c0 0.297-0.113 0.573-0.092 0.912l4.598 11.981 1.813-0.645-6.318-12.247z" fill="#000000" />
	<path d="M6885.079 37086.402c0.87 2.253 2.119 4.321 4.065 5.857 2.898 2.304 6.502 3.318 10.168 2.898 0 0 2.498-0.297 6.38-0.738l-4.403-13.363-16.21 5.346z" fill="#000000" />
	<path d="M6997.391 37038.622h-0.092l0.020 0.082z" fill="#000000" />
	<path d="M6876.16 37083.904c0.041 0.256 0.133 0.522 0.174 0.778l0.072 0.185-0.246-0.963z" fill="#000000" />
	<path d="M6978.887 37030.635l0.123 0.020 0.409-0.103z" fill="#000000" />
	<path d="M6878.434 37068.575c-0.020-0.113 0.020-0.215 0.020-0.287l-0.246-0.676 0.225 0.963z" fill="#000000" />
	<path d="M7061.985 37029.868l-63.815 12.585-24.167 5.264c5.427 6.082 18.473 16.589 31.181 29.122l60.877-32.082 184.709 7.004 2.078-11.315-190.864-10.578z" fill="#000000" />
	<path d="M7081.626 37082.696l-6.451-4.188-5.52 5.468z" fill="#000000" />
	<path d="M7102.331 37051.556l-27.157 26.952 6.451 4.188-11.971 1.28 5.52-5.468-27.648-17.838-19.671 10.086 49.89 32.226 5.499-5.478 43.12-44.964z" fill="#000000" />
	<path d="M7029.637 37089.065l-5.673-4.649-6.492 5.223z" fill="#000000" />
	<path d="M7066.736 37050.204l-42.773 34.212 5.673 4.649-12.165 0.573 6.492-5.223-8.766-7.137-10.834 5.56-3.4-2.704-34.97-33.26-8.468 11.796 66.959 50.463 5.878-5.315 58.675-52.9z" fill="#000000" />
	<path d="M6970.43 37040.702l-3.789 5.274 7.711-2.079z" fill="#000000" />
	<path d="M6965.412 37046.302l0.583 0.573 0.645-0.901z" fill="#000000" />
	<path d="M6966.641 37045.975l7.711-2.079c0 0 16.773-3.881 18.821-4.423-2.222-5.683-7.824-9.503-14.162-8.817l-88.412 22.518c-7.178 0.84-12.267 7.096-12.052 14.192l6.318 12.247-1.813 0.645 0.686 1.792 0.185 0.45 0.051 0.502c0.133 1.198 0.666 2.304 1.106 3.399l16.22-5.335 4.403 13.363c19.763-2.304 79.544-9.277 79.565-9.277 2.058-0.215 3.953-1.116 5.703-2.283l-12.913-24.535-12.052-11.448 0.635-0.912z" fill="#000000" />
	<path d="M218.685 257.034c0 23.44 18.954 42.414 42.394 42.414 23.429 0 42.404-18.974 42.404-42.414 0-11.469-4.618-21.842-12.002-29.481l-15.862 23.081-9.175-6.892 2.161-3.072 14.019-19.978c-6.339-3.748-13.66-6.062-21.545-6.062-23.44 0-42.394 18.985-42.394 42.404z" fill="#000000" />
	<path d="M348.478 144.446l32.144-46.807c-2.539-1.925-5.017-3.942-7.659-5.755l-32.645 46.51c2.846 1.894 5.519 3.963 8.161 6.052z" fill="#000000" />
	<path d="M291.481 227.554l31.897-46.51c-2.745-2.263-5.601-4.311-8.54-6.256l-32.215 45.906c3.216 1.915 6.236 4.167 8.858 6.861z" fill="#000000" />
	<path d="M351.283 120.627l9.523 8.171h24.525l12.841-16.353c-5.519-5.243-11.377-10.199-17.541-14.807l-7.659-5.755c-5.796-3.942-11.899-7.486-18.125-10.803l-13.097 16.384 9.534 23.163z" fill="#000000" />
	<path d="M261.079 14.94c-69.929 0-132.874 29.675-177.060 77.056l27.535 33.28c36.526-41.451 89.886-67.717 149.524-67.717 33.904 0 65.782 8.591 93.767 23.531l25.058-31.294 4.045 35.41 36.782-1.362-22.558 28.6c38.38 36.331 62.403 87.582 62.403 144.579 0 110.213-89.323 199.516-199.486 199.516-110.183 0-199.536-89.313-199.536-199.516 0-47.022 16.425-90.183 43.653-124.283l-27.678-33.444c-36.485 42.373-58.553 97.465-58.553 157.737 0 133.745 108.391 242.105 242.105 242.105 133.683 0 242.084-108.36 242.084-242.105 0-133.703-108.401-242.094-242.084-242.094z" fill="#000000" />
	<path d="M214.375 122.327c3.358-1.168 6.768-2.171 10.22-3.093-3.451 0.921-6.861 1.945-10.22 3.093z" fill="#000000" />
	<path d="M124.631 215.194c0.266-0.86 0.594-1.679 0.871-2.519-0.276 0.839-0.594 1.659-0.871 2.519z" fill="#000000" />
	<path d="M120.903 230.81c0.246-1.341 0.461-2.652 0.748-3.973-0.287 1.321-0.492 2.631-0.748 3.973z" fill="#000000" />
	<path d="M229.601 117.965c3.533-0.809 7.178-1.392 10.823-1.936-3.635 0.522-7.27 1.116-10.823 1.936z" fill="#000000" />
	<path d="M128.922 203.335c0.604-1.536 1.27-3.031 1.956-4.526-0.686 1.506-1.351 2.99-1.956 4.526z" fill="#000000" />
	<path d="M183.726 137.237c4.024-2.611 8.202-4.966 12.503-7.189-4.301 2.202-8.489 4.588-12.503 7.189z" fill="#000000" />
	<path d="M199.352 128.542c3.461-1.669 7.014-3.205 10.619-4.588-3.605 1.372-7.158 2.918-10.619 4.588z" fill="#000000" />
	<path d="M119.040 243.938c0.123-1.31 0.287-2.631 0.461-3.932-0.174 1.3-0.348 2.611-0.461 3.932z" fill="#000000" />
	<path d="M165.202 205.281l7.445-6.144-24.29-29.358c-2.161 2.775-4.26 5.55-6.206 8.489 0.102-0.164 0.205-0.338 0.307-0.522l22.743 27.535z" fill="#000000" />
	<path d="M245.156 115.302c5.232-0.594 10.537-0.942 15.923-0.942-5.386 0-10.69 0.348-15.923 0.942z" fill="#000000" />
	<path d="M134.174 191.97c0.748-1.464 1.495-2.97 2.325-4.403-0.829 1.454-1.577 2.929-2.325 4.403z" fill="#000000" />
	<path d="M183.286 137.502c-13.363 8.725-25.129 19.62-34.877 32.205 9.749-12.554 21.545-23.47 34.877-32.205z" fill="#000000" />
	<path d="M245.156 115.302c-1.597 0.174-3.154 0.502-4.731 0.717-3.635 0.553-7.291 1.126-10.823 1.936-1.69 0.368-3.338 0.829-5.007 1.28-3.451 0.921-6.861 1.925-10.22 3.093-1.485 0.512-2.959 1.055-4.403 1.618-3.614 1.392-7.158 2.918-10.619 4.587-1.054 0.512-2.109 1.004-3.133 1.506-4.301 2.222-8.478 4.577-12.503 7.189-0.143 0.092-0.297 0.195-0.44 0.256-13.333 8.745-25.129 19.65-34.877 32.205-0.041 0.010-0.051 0.051-0.051 0.082l24.29 29.358-7.445 6.144-22.754-27.525c-0.113 0.185-0.215 0.358-0.307 0.522-2.018 3.011-3.87 6.124-5.653 9.298-0.829 1.434-1.566 2.939-2.325 4.403-1.137 2.243-2.253 4.516-3.287 6.84-0.686 1.495-1.362 2.99-1.956 4.526-1.239 3.052-2.376 6.174-3.42 9.328-0.276 0.839-0.604 1.659-0.871 2.519-1.157 3.81-2.15 7.71-2.98 11.653-0.287 1.321-0.502 2.631-0.748 3.973-0.594 3.031-1.065 6.103-1.413 9.196-0.174 1.3-0.338 2.621-0.461 3.932-0.4 4.321-0.645 8.673-0.645 13.086 0 78.807 63.867 142.715 142.695 142.715 78.807 0 142.704-63.897 142.704-142.715 0-45.824-21.699-86.466-55.296-112.579l-25.098 36.598c21.995 18.012 36.004 45.363 36.004 76.001 0 54.303-44.002 98.345-98.304 98.345-54.313 0-98.314-44.042-98.314-98.345 0-54.282 44.001-98.314 98.314-98.314 19.865 0 38.288 5.929 53.76 16.046l25.477-36.382c-22.682-15.165-49.92-24.043-79.248-24.043-5.376 0.010-10.68 0.359-15.913 0.953z" fill="#000000" />
	<path d="M224.594 119.245c1.669-0.451 3.318-0.912 5.007-1.28-1.7 0.368-3.338 0.829-5.007 1.28z" fill="#000000" />
	<path d="M119.49 240.005c0.348-3.102 0.819-6.174 1.413-9.196-0.584 3.031-1.055 6.103-1.413 9.196z" fill="#000000" />
	<path d="M209.971 123.945c1.444-0.573 2.918-1.106 4.403-1.618-1.475 0.512-2.959 1.044-4.403 1.618z" fill="#000000" />
	<path d="M148.337 169.758l0.020 0.020 0.051-0.082z" fill="#000000" />
	<path d="M240.425 116.019c1.577-0.215 3.133-0.553 4.731-0.717-1.597 0.174-3.154 0.481-4.731 0.717z" fill="#000000" />
	<path d="M118.385 257.034c0-4.423 0.246-8.766 0.645-13.087-0.4 4.311-0.645 8.663-0.645 13.087z" fill="#000000" />
	<path d="M121.651 226.837c0.829-3.942 1.823-7.844 2.98-11.653-1.157 3.82-2.15 7.721-2.98 11.653z" fill="#000000" />
	<path d="M136.499 187.566c1.782-3.184 3.625-6.287 5.653-9.298-2.028 3.011-3.881 6.124-5.653 9.298z" fill="#000000" />
	<path d="M125.501 212.674c1.044-3.164 2.181-6.277 3.42-9.328-1.239 3.042-2.376 6.165-3.42 9.328z" fill="#000000" />
	<path d="M183.286 137.502c0.143-0.071 0.297-0.174 0.44-0.256-0.143 0.082-0.297 0.185-0.44 0.256z" fill="#000000" />
	<path d="M130.887 198.81c1.044-2.325 2.15-4.598 3.287-6.84-1.137 2.243-2.253 4.516-3.287 6.84z" fill="#000000" />
	<path d="M196.229 130.048c1.024-0.512 2.078-1.004 3.133-1.506-1.054 0.522-2.119 0.963-3.133 1.506z" fill="#000000" />
	<path d="M79.043 86.046l-4.219-5.141-2.969 6.462-3.625 0.737 9.298 11.192c2.089-2.478 4.27-4.915 6.492-7.301l-4.977-5.95z" fill="#000000" />
	<path d="M142.459 177.746c1.833-2.755 3.861-5.356 5.878-7.987l-36.782-44.483c-2.181 2.468-4.322 4.905-6.37 7.465l37.274 45.005z" fill="#000000" />
	<path d="M53.002 54.528l21.821 26.378 9.493-20.521-35.481-47.524-9.124 30.791-30.873 2.407 34.283 47.145 25.108-5.1-22.681-27.413z" fill="#000000" />
	<path d="M74.823 80.906l-21.822-26.378-7.455 6.165 22.681 27.413 3.625-0.737z" fill="#000000" />
</svg>
